<svg xmlns="http://www.w3.org/2000/svg" width="100" height="38">
  <g fill="none" fill-rule="evenodd">
    <path d="M35.496,22.088 C36.0560028,22.6160026 36.6959964,23.0439984 37.416,23.372 C38.1360036,23.7000016 38.8639963,23.864 39.6,23.864 C40.4800044,23.864 41.1559976,23.6800018 41.628,23.312 C42.1000024,22.9439982 42.336,22.456003 42.336,21.848 C42.336,21.5279984 42.2760006,21.2560011 42.156,21.032 C42.0359994,20.8079989 41.8680011,20.6120008 41.652,20.444 C41.4359989,20.2759992 41.1760015,20.1200007 40.872,19.976 C40.5679985,19.8319993 40.2400018,19.6880007 39.888,19.544 L37.752,18.608 C37.3679981,18.4479992 36.9840019,18.2480012 36.6,18.008 C36.2159981,17.7679988 35.8760015,17.4800017 35.58,17.144 C35.2839985,16.8079983 35.0440009,16.4160022 34.86,15.968 C34.6759991,15.5199978 34.584,15.0080029 34.584,14.432 C34.584,13.8079969 34.7159987,13.2280027 34.98,12.692 C35.2440013,12.1559973 35.6079977,11.688002 36.072,11.288 C36.5360023,10.887998 37.0879968,10.5760011 37.728,10.352 C38.3680032,10.1279989 39.0719962,10.016 39.84,10.016 C40.7680046,10.016 41.6559958,10.1959982 42.504,10.556 C43.3520042,10.9160018 44.079997,11.399997 44.688,12.008 L43.248,13.784 C42.7519975,13.3679979 42.2280028,13.0400012 41.676,12.8 C41.1239972,12.5599988 40.5120034,12.44 39.84,12.44 C39.0879962,12.44 38.4920022,12.6039984 38.052,12.932 C37.6119978,13.2600016 37.392,13.7119971 37.392,14.288 C37.392,14.5920015 37.4599993,14.8519989 37.596,15.068 C37.7320007,15.2840011 37.9159988,15.4759992 38.148,15.644 C38.3800012,15.8120008 38.6479985,15.9639993 38.952,16.1 C39.2560015,16.2360007 39.5679984,16.3679994 39.888,16.496 L42,17.384 C42.4640023,17.576001 42.891998,17.7999987 43.284,18.056 C43.676002,18.3120013 44.0119986,18.6079983 44.292,18.944 C44.5720014,19.2800017 44.7879992,19.6679978 44.94,20.108 C45.0920008,20.5480022 45.168,21.0559971 45.168,21.632 C45.168,22.2720032 45.0400013,22.8719972 44.784,23.432 C44.5279987,23.9920028 44.1560024,24.4839979 43.668,24.908 C43.1799976,25.3320021 42.5880035,25.6679988 41.892,25.916 C41.1959965,26.1640012 40.4080044,26.288 39.528,26.288 C38.4719947,26.288 37.4560049,26.088002 36.48,25.688 C35.5039951,25.287998 34.6400038,24.7200037 33.888,23.984 L35.496,22.088 Z M50.52,26.96 L50.52,30.656 L47.76,30.656 L47.76,14.216 L50.04,14.216 L50.232,15.464 L50.328,15.464 C50.8240025,15.0479979 51.375997,14.6880015 51.984,14.384 C52.592003,14.0799985 53.2239967,13.928 53.88,13.928 C54.6160037,13.928 55.2679972,14.0679986 55.836,14.348 C56.4040028,14.6280014 56.887998,15.0319974 57.288,15.56 C57.688002,16.0880026 57.991999,16.7199963 58.2,17.456 C58.408001,18.1920037 58.512,19.0159954 58.512,19.928 C58.512,20.936005 58.3720014,21.835996 58.092,22.628 C57.8119986,23.420004 57.4400023,24.0839973 56.976,24.62 C56.5119977,25.1560027 55.976003,25.5679986 55.368,25.856 C54.759997,26.1440014 54.1280033,26.288 53.472,26.288 C52.9599974,26.288 52.4480026,26.1760011 51.936,25.952 C51.4239974,25.7279989 50.9280024,25.4080021 50.448,24.992 L50.52,26.96 Z M50.52,23.024 C50.9520022,23.3920018 51.367998,23.6479993 51.768,23.792 C52.168002,23.9360007 52.5439982,24.008 52.896,24.008 C53.6800039,24.008 54.3359974,23.6680034 54.864,22.988 C55.3920026,22.3079966 55.656,21.2960067 55.656,19.952 C55.656,18.7679941 55.456002,17.8480033 55.056,17.192 C54.655998,16.5359967 54.0080045,16.208 53.112,16.208 C52.2799958,16.208 51.4160045,16.6479956 50.52,17.528 L50.52,23.024 Z M60.528,20.12 C60.528,19.1439951 60.6799985,18.2720038 60.984,17.504 C61.2880015,16.7359962 61.6999974,16.0880026 62.22,15.56 C62.7400026,15.0319974 63.3359966,14.6280014 64.008,14.348 C64.6800034,14.0679986 65.3839963,13.928 66.12,13.928 C66.8560037,13.928 67.5639966,14.0679986 68.244,14.348 C68.9240034,14.6280014 69.5199974,15.0319974 70.032,15.56 C70.5440026,16.0880026 70.9559984,16.7359962 71.268,17.504 C71.5800016,18.2720038 71.736,19.1439951 71.736,20.12 C71.736,21.0960049 71.5800016,21.9679962 71.268,22.736 C70.9559984,23.5040038 70.5440026,24.1519974 70.032,24.68 C69.5199974,25.2080026 68.9240034,25.6079986 68.244,25.88 C67.5639966,26.1520014 66.8560037,26.288 66.12,26.288 C65.3839963,26.288 64.6800034,26.1520014 64.008,25.88 C63.3359966,25.6079986 62.7400026,25.2080026 62.22,24.68 C61.6999974,24.1519974 61.2880015,23.5040038 60.984,22.736 C60.6799985,21.9679962 60.528,21.0960049 60.528,20.12 Z M63.36,20.12 C63.36,21.3040059 63.6039976,22.2519964 64.092,22.964 C64.5800024,23.6760036 65.2559957,24.032 66.12,24.032 C66.9840043,24.032 67.6639975,23.6760036 68.16,22.964 C68.6560025,22.2519964 68.904,21.3040059 68.904,20.12 C68.904,18.919994 68.6560025,17.9640036 68.16,17.252 C67.6639975,16.5399964 66.9840043,16.184 66.12,16.184 C65.2559957,16.184 64.5800024,16.5399964 64.092,17.252 C63.6039976,17.9640036 63.36,18.919994 63.36,20.12 Z M74.88,16.4 L73.2,16.4 L73.2,14.336 L75.024,14.216 L75.36,11 L77.664,11 L77.664,14.216 L80.664,14.216 L80.664,16.4 L77.664,16.4 L77.664,22.016 C77.664,23.3920069 78.2159945,24.08 79.32,24.08 C79.528001,24.08 79.7399989,24.0560002 79.956,24.008 C80.1720011,23.9599998 80.3679991,23.8960004 80.544,23.816 L81.024,25.856 C80.7039984,25.9680006 80.340002,26.0679996 79.932,26.156 C79.523998,26.2440004 79.0880023,26.288 78.624,26.288 C77.9359966,26.288 77.3560024,26.184001 76.884,25.976 C76.4119976,25.767999 76.0280015,25.4760019 75.732,25.1 C75.4359985,24.7239981 75.2200007,24.2760026 75.084,23.756 C74.9479993,23.2359974 74.88,22.6560032 74.88,22.016 L74.88,16.4 Z M83.544,16.4 L81.864,16.4 L81.864,14.336 L83.688,14.216 L84.024,11 L86.328,11 L86.328,14.216 L89.328,14.216 L89.328,16.4 L86.328,16.4 L86.328,22.016 C86.328,23.3920069 86.8799945,24.08 87.984,24.08 C88.192001,24.08 88.4039989,24.0560002 88.62,24.008 C88.8360011,23.9599998 89.0319991,23.8960004 89.208,23.816 L89.688,25.856 C89.3679984,25.9680006 89.004002,26.0679996 88.596,26.156 C88.187998,26.2440004 87.7520023,26.288 87.288,26.288 C86.5999966,26.288 86.0200024,26.184001 85.548,25.976 C85.0759976,25.767999 84.6920015,25.4760019 84.396,25.1 C84.0999985,24.7239981 83.8840007,24.2760026 83.748,23.756 C83.6119993,23.2359974 83.544,22.6560032 83.544,22.016 L83.544,16.4 Z M91.8,14.216 L94.08,14.216 L94.272,16.304 L94.368,16.304 C94.7840021,15.5359962 95.287997,14.948002 95.88,14.54 C96.472003,14.131998 97.0799969,13.928 97.704,13.928 C98.2640028,13.928 98.7119983,14.0079992 99.048,14.168 L98.568,16.568 C98.359999,16.5039997 98.1680009,16.4560002 97.992,16.424 C97.8159991,16.3919998 97.6000013,16.376 97.344,16.376 C96.8799977,16.376 96.3920026,16.5559982 95.88,16.916 C95.3679974,17.2760018 94.9280018,17.9039955 94.56,18.8 L94.56,26 L91.8,26 L91.8,14.216 Z" id="Spottr" fill="#9A9A9A"></path>
    <path d="M24,13.0483189 C24,3.96546022 17.9247434,0.0139628881 12,0 C6.07525656,0.0139628881 0,3.96546022 0,13.0483189 C0,19.2199155 11.9931585,38 11.9931585,38 C12.013683,38 24,19.2199155 24,13.0483189 Z M4,12.5 C4,7.80263158 7.57894738,4 12,4 C16.4210526,4 20,7.80263158 20,12.5 C20,17.1973684 16.4078948,21 11.9868421,21 C7.57894738,21 4,17.1973684 4,12.5 Z" id="Shape" fill="#008080" fill-rule="nonzero"></path>
                    <circle id="Path" stroke="#016363" stroke-width="0.5" fill="#C6C6C6" cx="12" cy="12" r="9"></circle>
                    <path d="M14.90925,10.86375 L10.362,3.1648125 C10.8946875,3.0669375 11.438625,3 12,3 C14.3686875,3 16.5045,3.932625 18.1104375,5.42775 L14.90925,10.86375 Z M14.2224375,14.25 L18.9058125,6.2934375 C20.195625,7.8504375 21,9.8214375 21,12 C21,12.7824375 20.868375,13.5271875 20.6810625,14.25 L14.2224375,14.25 Z M12.28125,8.625 L3.66825,8.625 C4.6610625,6.175875 6.708,4.2976875 9.23925,3.477 L12.28125,8.625 Z M11.7935625,15.375 L20.3323125,15.375 C19.3479375,17.80275 17.3285625,19.6685625 14.826,20.5033125 L11.7935625,15.375 Z M9.8090625,9.75 L5.11275,17.73075 C3.8128125,16.168125 3,14.1886875 3,12 C3,11.2175625 3.1305,10.4728125 3.318375,9.75 L9.8090625,9.75 Z M9.141375,13.1030625 L13.7105625,20.8284375 C13.1559375,20.9341875 12.5855625,21 12,21 C9.6425625,21 7.5151875,20.073 5.910375,18.5919375 L9.141375,13.1030625 Z" id="Combined-Shape" fill="#005555" fill-rule="nonzero"></path>
  </g>
</svg>
