<svg xmlns="http://www.w3.org/2000/svg" width="108" height="38">
  <g fill="none" fill-rule="evenodd">
    <path d="M39.2571096,26.2474776 C37.179001,26.2474776 35.148122,25.4209571 33.684,23.98045 L35.2898112,22.1148751 C36.3997102,23.1539295 37.8874471,23.8623756 39.3043394,23.8623756 C41.0518398,23.8623756 41.9964347,23.0830848 41.9964347,21.8787264 C41.9964347,20.6035234 41.0046101,20.2020705 39.6113327,19.6116988 L37.4859943,18.6907188 C35.9746425,18.0531173 34.3688313,16.8487588 34.3688313,14.5817312 C34.3688313,12.1257846 36.5413994,10.2365949 39.564103,10.2365949 C41.3588332,10.2365949 43.1063337,10.9922707 44.3106921,12.1966292 L42.9174147,13.9441296 C41.9255901,13.1176092 40.8865357,12.6216969 39.564103,12.6216969 C38.0999809,12.6216969 37.1317712,13.3065281 37.1317712,14.4400419 C37.1317712,15.6444004 38.3125148,16.0930829 39.5877178,16.6126101 L41.6894414,17.4863603 C43.5077865,18.2656511 44.8066044,19.4227798 44.8066044,21.6661926 C44.8066044,24.1693689 42.7284957,26.2474776 39.2571096,26.2474776 Z M47.3806254,30.5453842 L47.3806254,14.3691973 L49.6240381,14.3691973 L49.8129571,15.5971706 L49.9074166,15.5971706 C50.8756263,14.7706501 52.1272145,14.0858189 53.4024175,14.0858189 C56.2834318,14.0858189 57.9600877,16.4000763 57.9600877,19.9895367 C57.9600877,23.9568351 55.5749857,26.2474776 53.0009647,26.2474776 C51.9855253,26.2474776 50.9700858,25.7751802 50.0254909,24.9722745 L50.0963356,26.908694 L50.0963356,30.5453842 L47.3806254,30.5453842 Z M52.4342078,24.0040648 C53.9691745,24.0040648 55.149918,22.6344023 55.149918,20.0131516 C55.149918,17.6988942 54.3942421,16.3292316 52.6467417,16.3292316 C51.7966063,16.3292316 50.9937007,16.7542993 50.0963356,17.6280496 L50.0963356,23.0358551 C50.9464709,23.7443012 51.7493765,24.0040648 52.4342078,24.0040648 Z M65.4460019,26.2474776 C62.5649876,26.2474776 59.9437369,24.0276797 59.9437369,20.1784557 C59.9437369,16.3056168 62.5649876,14.0858189 65.4460019,14.0858189 C68.3506311,14.0858189 70.9718818,16.3056168 70.9718818,20.1784557 C70.9718818,24.0276797 68.3506311,26.2474776 65.4460019,26.2474776 Z M65.4460019,24.0276797 C67.1462726,24.0276797 68.185327,22.4927131 68.185327,20.1784557 C68.185327,17.8405834 67.1462726,16.3056168 65.4460019,16.3056168 C63.7457312,16.3056168 62.7302917,17.8405834 62.7302917,20.1784557 C62.7302917,22.4927131 63.7457312,24.0276797 65.4460019,24.0276797 Z M77.2298227,26.2474776 C74.5377274,26.2474776 73.5459028,24.5472069 73.5459028,22.0440305 L73.5459028,16.5181506 L71.8928618,16.5181506 L71.8928618,14.4872717 L73.687592,14.3691973 L74.0182002,11.2048046 L76.2852278,11.2048046 L76.2852278,14.3691973 L79.2370867,14.3691973 L79.2370867,16.5181506 L76.2852278,16.5181506 L76.2852278,22.0440305 C76.2852278,23.413693 76.804755,24.0749094 77.914654,24.0749094 C78.3161068,24.0749094 78.7884042,23.9568351 79.1190124,23.8151459 L79.5913098,25.8224099 C78.9537083,26.0349438 78.1508027,26.2474776 77.2298227,26.2474776 Z M84.3142841,26.2474776 C82.3778646,26.2474776 81.6694185,24.9958894 81.6694185,22.9886254 L81.6694185,9.292 L84.3851287,9.292 L84.3851287,23.1303146 C84.3851287,23.791531 84.692122,24.0276797 84.9755005,24.0276797 C85.0935748,24.0276797 85.1880343,24.0276797 85.4005682,23.98045 L85.7547912,26.0113289 C85.424183,26.1530181 84.9518856,26.2474776 84.3142841,26.2474776 Z M90.8792183,26.2474776 C88.8483394,26.2474776 87.455062,24.8778151 87.455062,22.8469361 C87.455062,20.3673746 89.5095558,19.0685567 94.2797598,18.5490296 C94.23253,17.3210562 93.7366177,16.2820019 92.1544214,16.2820019 C91.0209075,16.2820019 89.9346235,16.8015291 88.8955691,17.4155157 L87.9037445,15.5971706 C89.1789476,14.794265 90.8319886,14.0858189 92.6739485,14.0858189 C95.5549628,14.0858189 96.99547,15.8569342 96.99547,19.0921716 L96.99547,25.9640991 L94.7520572,25.9640991 L94.5631382,24.6888961 L94.4686787,24.6888961 C93.4296244,25.5626463 92.2488808,26.2474776 90.8792183,26.2474776 Z M91.7529685,24.1221392 C92.6975634,24.1221392 93.4060095,23.6498418 94.2797598,22.8469361 L94.2797598,20.2493003 C91.115367,20.6507531 90.0763127,21.4772736 90.0763127,22.6344023 C90.0763127,23.6734566 90.7847588,24.1221392 91.7529685,24.1221392 Z M103.48956,26.2474776 C101.907363,26.2474776 100.230707,25.5626463 99.0971935,24.6416663 L100.372397,22.8941659 C101.411451,23.6970715 102.403276,24.1929838 103.584019,24.1929838 C104.835607,24.1929838 105.425979,23.602612 105.425979,22.7997064 C105.425979,21.8314967 104.174391,21.406429 102.946418,20.9341316 C101.411451,20.3673746 99.6875653,19.4936244 99.6875653,17.557205 C99.6875653,15.526326 101.316991,14.0858189 103.914627,14.0858189 C105.520439,14.0858189 106.819256,14.7470353 107.763851,15.4790963 L106.512263,17.1321373 C105.709357,16.5417655 104.882837,16.1403127 103.961857,16.1403127 C102.804728,16.1403127 102.261586,16.6834547 102.261586,17.4155157 C102.261586,18.3364957 103.418715,18.6907188 104.670303,19.1394013 C106.2525,19.7297731 108,20.485449 108,22.6580172 C108,24.6416663 106.417804,26.2474776 103.48956,26.2474776 Z" id="Spotlas" fill="#9A9A9A"></path>
            <path d="M24,13.0483189 C24,3.96546022 17.9247434,0.0139628881 12,0 C6.07525656,0.0139628881 0,3.96546022 0,13.0483189 C0,19.2199155 11.9931585,38 11.9931585,38 C12.013683,38 24,19.2199155 24,13.0483189 Z M4,12.5 C4,7.80263158 7.57894738,4 12,4 C16.4210526,4 20,7.80263158 20,12.5 C20,17.1973684 16.4078948,21 11.9868421,21 C7.57894738,21 4,17.1973684 4,12.5 Z" id="Shape" fill="#008080" fill-rule="nonzero"></path>
            <circle id="Path" stroke="#016363" stroke-width="0.5" fill="#C6C6C6" fill-rule="nonzero" cx="12" cy="12" r="9"></circle>
            <path d="M14.90925,10.86375 L10.362,3.1648125 C10.8946875,3.0669375 11.438625,3 12,3 C14.3686875,3 16.5045,3.932625 18.1104375,5.42775 L14.90925,10.86375 Z M14.2224375,14.25 L18.9058125,6.2934375 C20.195625,7.8504375 21,9.8214375 21,12 C21,12.7824375 20.868375,13.5271875 20.6810625,14.25 L14.2224375,14.25 Z M12.28125,8.625 L3.66825,8.625 C4.6610625,6.175875 6.708,4.2976875 9.23925,3.477 L12.28125,8.625 Z M11.7935625,15.375 L20.3323125,15.375 C19.3479375,17.80275 17.3285625,19.6685625 14.826,20.5033125 L11.7935625,15.375 Z M9.8090625,9.75 L5.11275,17.73075 C3.8128125,16.168125 3,14.1886875 3,12 C3,11.2175625 3.1305,10.4728125 3.318375,9.75 L9.8090625,9.75 Z M9.141375,13.1030625 L13.7105625,20.8284375 C13.1559375,20.9341875 12.5855625,21 12,21 C9.6425625,21 7.5151875,20.073 5.910375,18.5919375 L9.141375,13.1030625 Z" id="Combined-Shape" fill="#005555" fill-rule="nonzero"></path>
  </g>
</svg>

