<svg xmlns="http://www.w3.org/2000/svg" xmlns:xlink="http://www.w3.org/1999/xlink" width="24" height="38" viewBox="0 0 24 38">
    <circle fill="#D8D8D8" cx="12" cy="12" r="10"/>
    <path fill="teal" fill-rule="nonzero" d="M24,13.0483189 C24,3.96546022 17.9247434,0.0139628881 12,0 C6.07525656,0.0139628881 0,3.96546022 0,13.0483189 C0,19.2199155 11.9931585,38 11.9931585,38 C12.013683,38 24,19.2199155 24,13.0483189 Z M3.69441277,12.5316921 C3.69441277,7.84401984 7.41313089,4.04923755 12.0068415,4.04923755 C16.6005521,4.04923755 20.3192702,7.84401984 20.3192702,12.5316921 C20.3192702,17.2193643 16.5868804,21.0141466 11.9931697,21.0141466 C7.41313089,21.0141466 3.69441277,17.2193643 3.69441277,12.5316921 Z"/>
    <circle cx="12" cy="12" r="9.5" stroke="#016363" fill="#ffffff"/>
    <path d="M12,20 C15.8655556,20 19,16.9295238 19,13.1428571 C15.1344444,13.1428571 12,16.2133333 12,20 Z M7.02222222,11.047619 C7.02222222,12.0990476 7.89333333,12.952381 8.96666667,12.952381 C9.37888889,12.952381 9.75222222,12.8304762 10.0711111,12.6171429 L10.0555556,12.7619048 C10.0555556,13.8133333 10.9266667,14.6666667 12,14.6666667 C13.0733333,14.6666667 13.9444444,13.8133333 13.9444444,12.7619048 L13.9288889,12.6171429 C14.24,12.8304762 14.6211111,12.952381 15.0333333,12.952381 C16.1066667,12.952381 16.9777778,12.0990476 16.9777778,11.047619 C16.9777778,10.2857143 16.5188889,9.63809524 15.8655556,9.33333333 C16.5188889,9.02857143 16.9777778,8.38095238 16.9777778,7.61904762 C16.9777778,6.56761905 16.1066667,5.71428571 15.0333333,5.71428571 C14.6211111,5.71428571 14.2477778,5.83619048 13.9288889,6.04952381 L13.9444444,5.9047619 C13.9444444,4.85333333 13.0733333,4 12,4 C10.9266667,4 10.0555556,4.85333333 10.0555556,5.9047619 L10.0711111,6.04952381 C9.76,5.83619048 9.37888889,5.71428571 8.96666667,5.71428571 C7.89333333,5.71428571 7.02222222,6.56761905 7.02222222,7.61904762 C7.02222222,8.38095238 7.48111111,9.02857143 8.13444444,9.33333333 C7.48111111,9.63809524 7.02222222,10.2857143 7.02222222,11.047619 Z M12,7.42857143 C13.0733333,7.42857143 13.9444444,8.28190476 13.9444444,9.33333333 C13.9444444,10.3847619 13.0733333,11.2380952 12,11.2380952 C10.9266667,11.2380952 10.0555556,10.3847619 10.0555556,9.33333333 C10.0555556,8.28190476 10.9266667,7.42857143 12,7.42857143 Z M5,13.1428571 C5,16.9295238 8.13444444,20 12,20 C12,16.2133333 8.86555556,13.1428571 5,13.1428571 Z" id="Shape" fill="#424242"></path>
</svg>