<svg xmlns="http://www.w3.org/2000/svg" xmlns:xlink="http://www.w3.org/1999/xlink" width="24" height="38" viewBox="0 0 24 38">
    <circle fill="#D8D8D8" cx="12" cy="12" r="10"/>
    <path fill="teal" fill-rule="nonzero" d="M24,13.0483189 C24,3.96546022 17.9247434,0.0139628881 12,0 C6.07525656,0.0139628881 0,3.96546022 0,13.0483189 C0,19.2199155 11.9931585,38 11.9931585,38 C12.013683,38 24,19.2199155 24,13.0483189 Z M3.69441277,12.5316921 C3.69441277,7.84401984 7.41313089,4.04923755 12.0068415,4.04923755 C16.6005521,4.04923755 20.3192702,7.84401984 20.3192702,12.5316921 C20.3192702,17.2193643 16.5868804,21.0141466 11.9931697,21.0141466 C7.41313089,21.0141466 3.69441277,17.2193643 3.69441277,12.5316921 Z"/>
    <circle cx="12" cy="12" r="9.5" stroke="#016363" fill="#ffffff"/>
    <path fill="#424242" fill-rule="nonzero" d="M18.2958333,15.2916667 L13.3666667,10.3625 C13.8541667,9.11666667 13.5833333,7.65416667 12.5541667,6.625 C11.4708333,5.54166667 9.84583333,5.325 8.54583333,5.92083333 L10.875,8.25 L9.25,9.875 L6.86666667,7.54583333 C6.21666667,8.84583333 6.4875,10.4708333 7.57083333,11.5541667 C8.6,12.5833333 10.0625,12.8541667 11.3083333,12.3666667 L16.2375,17.2958333 C16.4541667,17.5125 16.7791667,17.5125 16.9958333,17.2958333 L18.2416667,16.05 C18.5125,15.8333333 18.5125,15.4541667 18.2958333,15.2916667 Z"/>
</svg>

