<svg xmlns="http://www.w3.org/2000/svg" xmlns:xlink="http://www.w3.org/1999/xlink" width="24" height="38" viewBox="0 0 24 38">
    <circle fill="#D8D8D8" cx="12" cy="12" r="10"/>
    <path fill="teal" fill-rule="nonzero" d="M24,13.0483189 C24,3.96546022 17.9247434,0.0139628881 12,0 C6.07525656,0.0139628881 0,3.96546022 0,13.0483189 C0,19.2199155 11.9931585,38 11.9931585,38 C12.013683,38 24,19.2199155 24,13.0483189 Z M3.69441277,12.5316921 C3.69441277,7.84401984 7.41313089,4.04923755 12.0068415,4.04923755 C16.6005521,4.04923755 20.3192702,7.84401984 20.3192702,12.5316921 C20.3192702,17.2193643 16.5868804,21.0141466 11.9931697,21.0141466 C7.41313089,21.0141466 3.69441277,17.2193643 3.69441277,12.5316921 Z"/>
    <circle cx="12" cy="12" r="9.5" stroke="#016363" fill="#ffffff"/>
    <path d="M16.8001398,16.7272727 C15.9662369,16.7272727 15.1323341,16.4281818 14.4004194,15.8872727 C12.9365899,16.9754545 11.0648079,16.9754545 9.60097848,15.8872727 C8.86906375,16.4281818 8.0351609,16.7272727 7.20125805,16.7272727 L6.00139783,16.7272727 L6.00139783,18 L7.20125805,18 C8.0291616,18 8.84506655,17.7772727 9.60097848,17.37 C11.1128024,18.1909091 12.8885955,18.1909091 14.4004194,17.37 C15.1563313,17.7836364 15.9722362,18 16.8001398,18 L18,18 L18,16.7272727 L16.8001398,16.7272727 Z M7.17126155,15.4545455 L7.20125805,15.4545455 C8.16114622,15.4545455 9.01304698,14.8945455 9.60097848,14.1818182 C10.18891,14.8945455 11.0408107,15.4545455 12.0006989,15.4545455 C12.9605871,15.4545455 13.8124878,14.8945455 14.4004194,14.1818182 C14.9883509,14.8945455 15.8402516,15.4545455 16.8001398,15.4545455 L16.8301363,15.4545455 L17.9640042,11.2036364 C18.0119986,11.0381818 18,10.86 17.9280084,10.7072727 C17.8560168,10.5545455 17.7240322,10.44 17.5680503,10.3890909 L16.8001398,10.1218182 L16.8001398,7.18181818 C16.8001398,6.48181818 16.2602027,5.90909091 15.6002796,5.90909091 L13.8004892,5.90909091 L13.8004892,4 L10.2009086,4 L10.2009086,5.90909091 L8.40111827,5.90909091 C7.74119515,5.90909091 7.20125805,6.48181818 7.20125805,7.18181818 L7.20125805,10.1218182 L6.42734821,10.3890909 C6.27136638,10.44 6.13938176,10.5545455 6.06739015,10.7072727 C5.99539853,10.86 5.97740063,11.0381818 6.03139434,11.2036364 L7.17126155,15.4545455 Z M8.40111827,7.18181818 L15.6002796,7.18181818 L15.6002796,9.70818182 L12.0006989,8.45454545 L8.40111827,9.70818182 L8.40111827,7.18181818 Z" id="Shape" fill="#424242"></path>
</svg>