<svg xmlns="http://www.w3.org/2000/svg" xmlns:xlink="http://www.w3.org/1999/xlink" width="24" height="38" viewBox="0 0 24 38">
    <circle fill="#D8D8D8" cx="12" cy="12" r="10"/>
    <path fill="teal" fill-rule="nonzero" d="M24,13.0483189 C24,3.96546022 17.9247434,0.0139628881 12,0 C6.07525656,0.0139628881 0,3.96546022 0,13.0483189 C0,19.2199155 11.9931585,38 11.9931585,38 C12.013683,38 24,19.2199155 24,13.0483189 Z M3.69441277,12.5316921 C3.69441277,7.84401984 7.41313089,4.04923755 12.0068415,4.04923755 C16.6005521,4.04923755 20.3192702,7.84401984 20.3192702,12.5316921 C20.3192702,17.2193643 16.5868804,21.0141466 11.9931697,21.0141466 C7.41313089,21.0141466 3.69441277,17.2193643 3.69441277,12.5316921 Z"/>
    <circle cx="12" cy="12" r="9.5" stroke="#016363" fill="#ffffff"/>
    <path fill="#4D4D4D" fill-rule="nonzero" d="M13.19,5 C13.19,5 13.68,6.74125 13.68,8.15 C13.68,9.50625 12.67,10.6 11.12,10.6 C9.57,10.6 8.4,9.50625 8.4,8.15 L8.42,7.91375 C6.91,9.4975 6,11.5275 6,13.75 C6,16.64625 8.69,19 12,19 C15.31,19 18,16.64625 18,13.75 C18,10.20625 16.12,7.05625 13.19,5 Z M11.4119601,17 C10.076412,17 9,16.0483384 9,14.8700906 C9,13.7643505 9.77740864,12.9939577 11.10299,12.7492447 C12.4285714,12.5045317 13.7940199,11.9244713 14.551495,11 C14.8405316,11.8791541 15,12.8036254 15,13.7462236 C15,15.5407855 13.3853821,17 11.4119601,17 Z"/>
</svg>


