<svg xmlns="http://www.w3.org/2000/svg" xmlns:xlink="http://www.w3.org/1999/xlink" width="24" height="38" viewBox="0 0 24 38">
    <circle fill="#D8D8D8" cx="12" cy="12" r="10"/>
    <path fill="teal" fill-rule="nonzero" d="M24,13.0483189 C24,3.96546022 17.9247434,0.0139628881 12,0 C6.07525656,0.0139628881 0,3.96546022 0,13.0483189 C0,19.2199155 11.9931585,38 11.9931585,38 C12.013683,38 24,19.2199155 24,13.0483189 Z M3.69441277,12.5316921 C3.69441277,7.84401984 7.41313089,4.04923755 12.0068415,4.04923755 C16.6005521,4.04923755 20.3192702,7.84401984 20.3192702,12.5316921 C20.3192702,17.2193643 16.5868804,21.0141466 11.9931697,21.0141466 C7.41313089,21.0141466 3.69441277,17.2193643 3.69441277,12.5316921 Z"/>
    <circle cx="12" cy="12" r="9.5" stroke="#016363" fill="#ffffff"/>
    <path fill="#4D4D4D" fill-rule="nonzero" d="M12,9.22222222 L12,7 L6,7 L6,17 L18,17 L18,9.22222222 L12,9.22222222 Z M8.4,15.8888889 L7.2,15.8888889 L7.2,14.7777778 L8.4,14.7777778 L8.4,15.8888889 Z M8.4,13.6666667 L7.2,13.6666667 L7.2,12.5555556 L8.4,12.5555556 L8.4,13.6666667 Z M8.4,11.4444444 L7.2,11.4444444 L7.2,10.3333333 L8.4,10.3333333 L8.4,11.4444444 Z M8.4,9.22222222 L7.2,9.22222222 L7.2,8.11111111 L8.4,8.11111111 L8.4,9.22222222 Z M10.8,15.8888889 L9.6,15.8888889 L9.6,14.7777778 L10.8,14.7777778 L10.8,15.8888889 Z M10.8,13.6666667 L9.6,13.6666667 L9.6,12.5555556 L10.8,12.5555556 L10.8,13.6666667 Z M10.8,11.4444444 L9.6,11.4444444 L9.6,10.3333333 L10.8,10.3333333 L10.8,11.4444444 Z M10.8,9.22222222 L9.6,9.22222222 L9.6,8.11111111 L10.8,8.11111111 L10.8,9.22222222 Z M16.8,15.8888889 L12,15.8888889 L12,14.7777778 L13.2,14.7777778 L13.2,13.6666667 L12,13.6666667 L12,12.5555556 L13.2,12.5555556 L13.2,11.4444444 L12,11.4444444 L12,10.3333333 L16.8,10.3333333 L16.8,15.8888889 Z M15.6,11.4444444 L14.4,11.4444444 L14.4,12.5555556 L15.6,12.5555556 L15.6,11.4444444 Z M15.6,13.6666667 L14.4,13.6666667 L14.4,14.7777778 L15.6,14.7777778 L15.6,13.6666667 Z"/>
</svg>


