<svg xmlns="http://www.w3.org/2000/svg" xmlns:xlink="http://www.w3.org/1999/xlink" width="24" height="38" viewBox="0 0 24 38">
    <circle fill="#D8D8D8" cx="12" cy="12" r="10"/>
    <path fill="teal" fill-rule="nonzero" d="M24,13.0483189 C24,3.96546022 17.9247434,0.0139628881 12,0 C6.07525656,0.0139628881 0,3.96546022 0,13.0483189 C0,19.2199155 11.9931585,38 11.9931585,38 C12.013683,38 24,19.2199155 24,13.0483189 Z M3.69441277,12.5316921 C3.69441277,7.84401984 7.41313089,4.04923755 12.0068415,4.04923755 C16.6005521,4.04923755 20.3192702,7.84401984 20.3192702,12.5316921 C20.3192702,17.2193643 16.5868804,21.0141466 11.9931697,21.0141466 C7.41313089,21.0141466 3.69441277,17.2193643 3.69441277,12.5316921 Z"/>
    <circle cx="12" cy="12" r="9.5" stroke="#016363" fill="#ffffff"/>
    <path d="M14,10.6842105 L14,6.89473684 L12,5 L10,6.89473684 L10,8.15789474 L6,8.15789474 L6,17 L18,17 L18,10.6842105 L14,10.6842105 Z M8.66666667,15.7368421 L7.33333333,15.7368421 L7.33333333,14.4736842 L8.66666667,14.4736842 L8.66666667,15.7368421 Z M8.66666667,13.2105263 L7.33333333,13.2105263 L7.33333333,11.9473684 L8.66666667,11.9473684 L8.66666667,13.2105263 Z M8.66666667,10.6842105 L7.33333333,10.6842105 L7.33333333,9.42105263 L8.66666667,9.42105263 L8.66666667,10.6842105 Z M12.6666667,15.7368421 L11.3333333,15.7368421 L11.3333333,14.4736842 L12.6666667,14.4736842 L12.6666667,15.7368421 Z M12.6666667,13.2105263 L11.3333333,13.2105263 L11.3333333,11.9473684 L12.6666667,11.9473684 L12.6666667,13.2105263 Z M12.6666667,10.6842105 L11.3333333,10.6842105 L11.3333333,9.42105263 L12.6666667,9.42105263 L12.6666667,10.6842105 Z M12.6666667,8.15789474 L11.3333333,8.15789474 L11.3333333,6.89473684 L12.6666667,6.89473684 L12.6666667,8.15789474 Z M16.6666667,15.7368421 L15.3333333,15.7368421 L15.3333333,14.4736842 L16.6666667,14.4736842 L16.6666667,15.7368421 Z M16.6666667,13.2105263 L15.3333333,13.2105263 L15.3333333,11.9473684 L16.6666667,11.9473684 L16.6666667,13.2105263 Z" id="Shape" fill="#424242"></path>
</svg>