<!-- Generated by IcoMoon.io -->
<svg version="1.1" xmlns="http://www.w3.org/2000/svg" width="32" height="32" viewBox="0 0 32 32">
<title>autumn</title>
<path d="M26.172 18.897c0.111 0.083 0.131 0.24 0.048 0.351l-0.859 1.123c-0.004 0.004-0.009 0.006-0.013 0.011 0.605 0.597 0.712 1.526-0.149 2.651-0.582 0.761-1.762 1.212-2.579 1.446-0.455 0.13-0.913-0.218-0.906-0.693 0.012-0.85 0.139-2.104 0.722-2.865 0.862-1.125 1.785-1.264 2.52-0.838 0.004-0.004 0.005-0.010 0.008-0.015l0.859-1.123c0.042-0.054 0.102-0.088 0.165-0.096 0.064-0.008 0.131 0.006 0.186 0.049zM30.641 10.958c0.551 0.289 0.986 0.935 1.275 1.477 0.236 0.445-0.049 0.987-0.549 1.046-0.61 0.071-1.389 0.081-1.939-0.208-0.944-0.495-1.164-1.162-0.941-1.761-0.004-0.002-0.009-0.002-0.013-0.003l-0.94-0.493c-0.047-0.025-0.078-0.066-0.092-0.11-0.014-0.047-0.011-0.098 0.013-0.145 0.048-0.091 0.161-0.127 0.254-0.078l0.941 0.494c0.003 0.003 0.006 0.006 0.010 0.008 0.366-0.523 1.040-0.721 1.983-0.225zM29.808 3.804c-0.391 0.483-1.109 0.785-1.698 0.96-0.482 0.145-0.959-0.24-0.919-0.742 0.048-0.611 0.191-1.378 0.581-1.861 0.669-0.829 1.366-0.916 1.91-0.581 0.003-0.004 0.004-0.008 0.007-0.012l0.667-0.827c0.033-0.041 0.078-0.064 0.127-0.069 0.047-0.005 0.096 0.008 0.137 0.041 0.081 0.064 0.095 0.184 0.029 0.265l-0.665 0.827c-0.004 0.003-0.009 0.006-0.011 0.008 0.444 0.461 0.506 1.159-0.163 1.99zM3.434 18.213c-0.552 0.284-1.331 0.27-1.94 0.195-0.5-0.062-0.781-0.606-0.542-1.049 0.291-0.541 0.731-1.185 1.283-1.47 0.948-0.488 1.62-0.287 1.982 0.24 0.004-0.003 0.006-0.007 0.011-0.009l0.943-0.485c0.047-0.025 0.098-0.028 0.144-0.013 0.045 0.015 0.085 0.047 0.109 0.094 0.048 0.092 0.011 0.205-0.081 0.252l-0.943 0.487c-0.005 0.002-0.009 0.002-0.013 0.003 0.22 0.602-0.005 1.267-0.953 1.756zM23.745 12.907l-6.799 11.209-10.317 2.525-3.388 4.307c-0.171 0.218-0.425 0.355-0.702 0.378s-0.55-0.069-0.754-0.256l-1.459-1.33c-0.205-0.188-0.323-0.45-0.326-0.728s0.11-0.545 0.312-0.734l9.773-9.257 1.648-4.563-6.056-6.752-1.654-4.941c-0.055-0.165 0.034-0.345 0.2-0.4l0.214-0.071c0.079-0.027 0.166-0.021 0.242 0.017s0.132 0.103 0.159 0.183l1.627 4.855 1.897 2.101 0.211-0.96c0.001-0.004 0.006-0.009 0.007-0.015-0.801-0.287-1.29-1.082-0.985-2.466 0.207-0.936 1.084-1.842 1.726-2.4 0.358-0.311 0.92-0.187 1.114 0.246 0.349 0.776 0.764 1.968 0.557 2.904-0.305 1.383-1.084 1.9-1.93 1.823-0.001 0.006 0 0.011-0.001 0.018l-0.288 1.307 3.29 3.642 3.138-8.694c0.177-0.49 0.52-0.904 0.972-1.167l4.351-2.544c0.236-0.138 0.539-0.059 0.677 0.177l0.498 0.853c0.067 0.113 0.085 0.248 0.052 0.375s-0.116 0.236-0.229 0.302l-4.25 2.486c-0.116 0.068-0.203 0.173-0.248 0.299l-1.302 3.605 1.060-0.307c0.006-0.002 0.012 0 0.018-0.002-0.132-0.839 0.332-1.65 1.694-2.044 0.92-0.267 2.135 0.068 2.932 0.365 0.445 0.165 0.605 0.717 0.318 1.096-0.514 0.677-1.361 1.61-2.281 1.877-1.36 0.396-2.188-0.041-2.525-0.82-0.005 0.002-0.010 0.006-0.015 0.008l-1.357 0.394c-0.017 0.004-0.034 0.008-0.051 0.010l-3.697 10.233-0.148 0.188-4.176 5.308 8.903-2.177 6.614-10.905c0.090-0.149 0.285-0.197 0.434-0.106l0.193 0.117c0.072 0.043 0.125 0.113 0.144 0.195 0.020 0.081 0.007 0.167-0.036 0.239z"></path>
</svg>
