<!-- Generated by IcoMoon.io -->
<svg version="1.1" xmlns="http://www.w3.org/2000/svg" width="32" height="32" viewBox="0 0 32 32">
<title>spring</title>
<path d="M30.441 0.053l1.558-0.052-0.051 1.558c-0.022 0.63-0.588 15.49-7.327 22.229-3.526 3.526-7.125 5.313-10.693 5.313-2.374 0-4.624-0.819-6.585-2.383l-4.852 4.853c-0.285 0.284-0.658 0.427-1.031 0.427-0.375 0-0.748-0.143-1.033-0.427-0.57-0.569-0.57-1.494 0-2.063l4.859-4.86c-2.214-2.833-5.187-9.158 2.926-17.271 6.737-6.737 21.6-7.303 22.229-7.324zM22.558 21.725c4.728-4.728 6.029-14.734 6.364-18.645-3.915 0.335-13.92 1.634-18.649 6.362-4.674 4.675-5.691 9.385-2.915 13.135l3.423-3.423-1.421-5.905c-0.19-0.783 0.293-1.572 1.075-1.76 0.786-0.187 1.572 0.294 1.76 1.078l1.005 4.167 2.945-2.945-0.741-3.235c-0.18-0.786 0.311-1.568 1.097-1.748 0.793-0.179 1.567 0.311 1.747 1.096l0.333 1.451 3.775-3.776c0.57-0.57 1.494-0.57 2.063 0 0.569 0.569 0.569 1.494 0 2.063l-3.759 3.758 1.404 0.321c0.786 0.18 1.277 0.963 1.096 1.748-0.154 0.677-0.755 1.134-1.42 1.134-0.109 0-0.217-0.011-0.328-0.036l-3.188-0.73-2.945 2.945 4.121 0.992c0.784 0.189 1.267 0.976 1.078 1.761-0.16 0.669-0.758 1.118-1.417 1.118-0.113 0-0.228-0.014-0.342-0.041l-5.858-1.411-3.439 3.439c1.377 1.015 2.91 1.546 4.504 1.546 2.729 0 5.713-1.542 8.63-4.459z"></path>
</svg>
