<!-- Generated by IcoMoon.io -->
<svg version="1.1" xmlns="http://www.w3.org/2000/svg" width="32" height="32" viewBox="0 0 32 32">
<title>summer</title>
<path d="M13.63 26.293c0.732 0.178 1.56 0.271 2.378 0.271s1.584-0.093 2.377-0.271v3.324c0 1.316-1.061 2.383-2.378 2.383-1.315 0-2.377-1.066-2.377-2.383v-3.324zM18.386 5.707c-0.793-0.177-1.558-0.271-2.377-0.271s-1.646 0.094-2.378 0.272v-3.326c0-1.316 1.061-2.382 2.377-2.382s2.378 1.066 2.378 2.382v3.325zM24.961 21.591l2.354 2.353c0.93 0.931 0.93 2.439 0 3.369-0.466 0.466-1.077 0.698-1.686 0.698s-1.219-0.232-1.685-0.698l-2.353-2.353c1.362-0.85 2.517-2.007 3.37-3.368zM7.040 10.409l-2.355-2.354c-0.931-0.93-0.931-2.439 0-3.37 0.93-0.93 2.439-0.93 3.37 0l2.354 2.355c-1.362 0.852-2.516 2.007-3.37 3.368zM7.040 21.59c0.853 1.363 2.008 2.517 3.37 3.37l-2.354 2.353c-0.466 0.466-1.075 0.698-1.684 0.698-0.611 0-1.22-0.232-1.686-0.698-0.931-0.93-0.931-2.438 0-3.369zM24.961 10.409c-0.854-1.362-2.009-2.516-3.37-3.37l2.353-2.354c0.931-0.93 2.439-0.93 3.371 0 0.93 0.931 0.93 2.44 0 3.37zM29.617 13.617c1.316 0 2.384 1.061 2.383 2.377 0 1.314-1.066 2.377-2.383 2.377h-3.324c0.176-0.731 0.271-1.558 0.271-2.377s-0.094-1.586-0.271-2.377h3.324zM5.436 15.995c0 0.819 0.094 1.646 0.271 2.377h-3.325c-1.316 0-2.382-1.061-2.382-2.377s1.066-2.377 2.382-2.377h3.326c-0.177 0.791-0.271 1.557-0.271 2.377zM7.479 16c0-5.681 2.841-8.522 8.522-8.522s8.522 2.841 8.522 8.522-2.841 8.522-8.522 8.522-8.522-2.841-8.522-8.522z"></path>
</svg>
