<!-- Generated by IcoMoon.io -->
<svg version="1.1" xmlns="http://www.w3.org/2000/svg" width="32" height="32" viewBox="0 0 32 32">
<title>winter</title>
<path d="M30.613 14.787c0.766 0 1.388 0.634 1.386 1.402 0 0.767-0.622 1.4-1.388 1.4h-1.094l-1.414 1.415c-0.167 0.168-0.396 0.263-0.634 0.263s-0.465-0.095-0.632-0.263l-1.415-1.414h-4.43c-0.114 0.406-0.276 0.792-0.479 1.151l3.132 3.13h2c0.24 0 0.477 0.096 0.645 0.265s0.272 0.398 0.272 0.636v2l0.481 0.491c0.541 0.541 0.53 1.421-0.011 1.963-0.27 0.271-0.626 0.406-0.981 0.406s-0.709-0.135-0.981-0.407l-0.491-0.491h-1.998c-0.236 0-0.459-0.094-0.626-0.261-0.167-0.169-0.254-0.396-0.254-0.634v-2l-3.138-3.14c-0.358 0.204-0.741 0.365-1.144 0.48v4.437l1.407 1.413c0.168 0.167 0.255 0.395 0.255 0.633s-0.090 0.466-0.256 0.633l-1.406 1.414v0.694c0 0.766-0.634 1.388-1.401 1.388s-1.401-0.622-1.401-1.388v-0.694l-1.412-1.414c-0.168-0.167-0.261-0.394-0.261-0.633s0.093-0.466 0.261-0.633l1.411-1.414v-4.433c-0.415-0.116-0.811-0.282-1.178-0.494l-3.156 3.151v2c0 0.238-0.076 0.466-0.245 0.633-0.166 0.168-0.376 0.261-0.614 0.261h-1.998l-0.492 0.493c-0.27 0.271-0.627 0.407-0.981 0.407s-0.709-0.135-0.981-0.407c-0.542-0.541-0.563-1.421-0.021-1.963l0.469-0.491v-2c0-0.238 0.115-0.468 0.284-0.636 0.167-0.168 0.416-0.265 0.655-0.265h2l3.141-3.142c-0.2-0.357-0.36-0.738-0.472-1.139h-4.447l-1.415 1.414c-0.168 0.167-0.396 0.263-0.633 0.263s-0.465-0.095-0.633-0.263l-1.415-1.416h-1.094c-0.766 0-1.388-0.633-1.388-1.4s0.622-1.401 1.388-1.401h1.094l1.415-1.402c0.168-0.168 0.396-0.256 0.633-0.256s0.465 0.084 0.633 0.252l1.415 1.405h4.453c0.113-0.399 0.275-0.778 0.475-1.132l-3.152-3.15h-2c-0.238 0-0.466-0.084-0.634-0.252s-0.263-0.391-0.263-0.629l0.001-1.997-0.775-0.774c-0.543-0.541-0.543-1.42 0-1.962 0.542-0.542 1.42-0.555 1.963-0.012l0.776 0.763h2.001c0.494 0 0.857 0.426 0.857 0.92v2l3.157 3.152c0.367-0.211 0.762-0.378 1.178-0.495v-4.432l-1.413-1.414c-0.167-0.168-0.26-0.396-0.26-0.634s0.093-0.465 0.261-0.633l1.412-1.414v-1.096c0-0.767 0.634-1.388 1.401-1.388s1.401 0.622 1.401 1.388v1.096l1.407 1.415c0.168 0.168 0.254 0.396 0.254 0.633s-0.089 0.466-0.256 0.634l-1.406 1.414v4.436c0.404 0.114 0.787 0.277 1.144 0.48l3.138-3.14v-2.001c0-0.494 0.385-0.92 0.881-0.92h2.001l0.774-0.763c0.542-0.542 1.421-0.53 1.963 0.012s0.542 1.42 0 1.962l-0.776 0.774 0.001 1.997c0 0.238-0.095 0.461-0.262 0.629-0.169 0.168-0.396 0.252-0.634 0.252h-2l-3.143 3.139c0.203 0.357 0.366 0.739 0.481 1.142h4.438l1.414-1.405c0.168-0.168 0.396-0.252 0.633-0.252 0.238 0 0.466 0.088 0.634 0.256l1.415 1.402h1.094zM13.613 16.201c0 1.324 1.073 2.396 2.395 2.396s2.395-1.073 2.395-2.396c0-1.322-1.073-2.395-2.395-2.395s-2.395 1.073-2.395 2.395z"></path>
</svg>
